<svg width="182" height="27" viewBox="0 0 182 27" fill="none" xmlns="http://www.w3.org/2000/svg">
<path d="M18.9077 0.25V11.2039H5.03137V0.25H0V26.9683H5.03137V15.2116H18.9077V26.9683H23.939V0.25H18.9077Z" fill="white"/>
<path d="M70.2531 0.25V4.25845H80.6594V26.9683H85.6908V4.25845H96.1373V0.25H70.2531Z" fill="white"/>
<path d="M115.806 26.9678V3.76175C115.806 3.32922 115.867 2.89083 115.996 2.44439C116.122 2.00014 116.388 1.58664 116.797 1.2046C117.253 0.772066 117.73 0.504934 118.225 0.403204C118.721 0.301474 119.197 0.249512 119.654 0.249512H137.038V4.25796H122.095C121.917 4.25796 121.752 4.26454 121.598 4.27699C121.447 4.28943 121.293 4.3853 121.142 4.56315C120.988 4.71537 120.901 4.88736 120.876 5.07838C120.849 5.2694 120.837 5.45456 120.837 5.63168V11.4347H132.654V15.4416H120.837V26.9678H115.806Z" fill="white"/>
<path d="M142.908 26.9678C142.476 26.9678 142.032 26.9181 141.574 26.8142C141.117 26.7146 140.736 26.536 140.431 26.2806C140.226 26.102 140.017 25.8356 139.802 25.4785C139.586 25.1235 139.479 24.6537 139.479 24.066V0.249512H144.51V21.5096C144.51 21.6618 144.516 21.8477 144.529 22.0629C144.541 22.2795 144.648 22.4771 144.854 22.6535C144.928 22.7054 145.057 22.7691 145.234 22.8452C145.411 22.9221 145.704 22.9609 146.111 22.9609H160.75V26.9678H142.908Z" fill="white"/>
<path d="M175.693 0.25H181.106L169.821 18.7999V26.9683H164.79V18.7999L153.506 0.25H158.919L167.305 14.258L175.693 0.25Z" fill="white"/>
<path d="M56.6068 0H41.0236C33.5851 0 27.5552 6.03719 27.5552 13.4847C27.5552 20.9322 33.5851 26.9694 41.0236 26.9694H56.6068C64.0453 26.9694 70.0752 20.9322 70.0752 13.4847C70.0752 6.03719 64.0453 0 56.6068 0ZM55.5498 24.0616C49.7151 24.0616 44.9856 19.3265 44.9856 13.4847C44.9856 7.64364 49.7151 2.90771 55.5498 2.90771C61.3845 2.90771 66.114 7.64364 66.114 13.4847C66.114 19.3265 61.3845 24.0616 55.5498 24.0616Z" fill="#DB0617"/>
</svg>
