<?xml version="1.0" encoding="UTF-8"?>
<svg id="_Слой_1" data-name="Слой_1" xmlns="http://www.w3.org/2000/svg" xmlns:xlink="http://www.w3.org/1999/xlink" viewBox="0 0 220 146">
  <defs>
    <filter id="drop-shadow-9" filterUnits="userSpaceOnUse">
      <feOffset dx="4" dy="4"/>
      <feGaussianBlur result="blur" stdDeviation="3"/>
      <feFlood flood-color="#4d4d4d" flood-opacity=".4"/>
      <feComposite in2="blur" operator="in"/>
      <feComposite in="SourceGraphic"/>
    </filter>
  </defs>
  <circle cx="73.02" cy="73" r="51.51" style="fill: #fff; filter: url(#drop-shadow-9);"/>
  <path d="M73.02,7.1c36.34,0,65.9,29.56,65.9,65.9s-29.56,65.9-65.9,65.9S7.12,109.34,7.12,73,36.68,7.1,73.02,7.1M73.02.1C32.76.1.12,32.74.12,73s32.64,72.9,72.9,72.9,72.9-32.64,72.9-72.9S113.28.1,73.02.1h0Z" style="fill: #4d4d4d;"/>
  <path d="M73.02.1v7c36.34,0,65.9,29.56,65.9,65.9s-29.56,65.9-65.9,65.9v7c40.26,0,72.9-32.64,72.9-72.9S113.28.1,73.02.1Z" style="fill: #db0617;"/>
  <g>
    <path d="M138.92,73h72.46" style="fill: none; stroke: #db0617; stroke-miterlimit: 10; stroke-width: 3px;"/>
    <g>
      <circle cx="210.93" cy="73" r="7.9" style="fill: #fff;"/>
      <path d="M210.93,81.95c-4.93,0-8.95-4.01-8.95-8.95s4.01-8.95,8.95-8.95,8.95,4.01,8.95,8.95-4.01,8.95-8.95,8.95,4.93,0,0,0ZM210.93,66.15c-3.78,0-6.85,3.07-6.85,6.85s3.07,6.85,6.85,6.85,6.85-3.07,6.85-6.85-3.07-6.85-6.85-6.85,3.78,0,0,0Z" style="fill: #db0617;"/>
    </g>
  </g>
  <g>
    <path d="M47.42,68.46c0-1.23.1-2.31.3-3.25.2-.93.45-1.75.75-2.45.3-.7.64-1.29,1.01-1.76.37-.47.73-.87,1.08-1.18.6-.52,1.25-.92,1.96-1.23.7-.3,1.44-.53,2.21-.69.77-.16,1.56-.25,2.36-.28.8-.03,1.62-.04,2.45-.04s1.61.01,2.43.04c.82.03,1.61.12,2.39.28.77.16,1.51.39,2.21.69.7.3,1.35.71,1.96,1.23.34.32.7.71,1.08,1.18.37.47.71,1.06,1.01,1.76.3.7.55,1.52.75,2.45.2.93.3,2.01.3,3.25v8.64c0,1.43-.11,2.69-.32,3.76-.21,1.08-.49,2-.84,2.77-.34.77-.73,1.41-1.16,1.91-.43.5-.86.9-1.29,1.18-.6.43-1.28.75-2.04.95-.76.2-1.53.34-2.3.41-.77.07-1.53.11-2.28.11h-3.83c-.72,0-1.46-.04-2.24-.11-.77-.07-1.54-.21-2.3-.41-.76-.2-1.44-.52-2.04-.95-.83-.57-1.48-1.28-1.96-2.11-.47-.83-.83-1.7-1.08-2.6-.24-.9-.4-1.79-.47-2.67-.07-.87-.11-1.63-.11-2.26v-8.64ZM53.09,76.46c0,1.4.09,2.57.28,3.48.19.92.51,1.65.97,2.19.34.4.73.7,1.16.9.43.2.88.35,1.35.45.47.1.94.16,1.4.17.46.01.89.02,1.29.02s.83,0,1.29-.02c.46-.01.92-.07,1.38-.17.46-.1.9-.25,1.33-.45.43-.2.82-.5,1.16-.9.6-.72.97-1.62,1.1-2.71.13-1.09.19-2.08.19-2.97v-7.74c0-.34-.01-.75-.04-1.23-.03-.47-.11-.95-.24-1.44-.13-.49-.32-.97-.58-1.44-.26-.47-.62-.9-1.07-1.27-.57-.49-1.3-.82-2.19-.99s-1.66-.26-2.32-.26-1.43.09-2.32.26c-.89.17-1.62.5-2.19.99-.46.37-.82.8-1.08,1.27-.26.47-.45.95-.58,1.44-.13.49-.21.97-.24,1.44-.03.47-.04.88-.04,1.23v7.74Z" style="fill: #4d4d4d;"/>
    <path d="M78.29,87.98c-.14,0-.39-.02-.73-.06s-.7-.18-1.08-.41c-.37-.23-.7-.59-.97-1.07-.27-.49-.41-1.18-.41-2.06,0-1.2.19-2.09.58-2.64.39-.56.81-1,1.27-1.31l13.93-9.55c.89-.6,1.43-1.26,1.61-1.98.19-.72.28-1.51.28-2.37,0-.75-.04-1.37-.13-1.87-.09-.5-.24-.91-.47-1.23-.54-.69-1.56-1.03-3.05-1.03h-12v-4.52h14.62c.34,0,.73.01,1.16.04.43.03.87.11,1.31.24.44.13.89.31,1.33.54.44.23.87.54,1.27.95.83.83,1.34,1.8,1.53,2.9.19,1.1.28,2.21.28,3.33,0,.83-.06,1.79-.19,2.88-.13,1.09-.52,2.12-1.18,3.1-.4.57-.82,1.04-1.27,1.4-.45.36-.9.7-1.35,1.01l-12.13,8.43c-.06.06-.15.13-.28.21-.13.09-.19.19-.19.3,0,.06.02.11.06.17.04.06.14.09.28.09h14.96v4.52h-19.05Z" style="fill: #4d4d4d;"/>
  </g>
</svg>