<svg width="84" height="84" viewBox="0 0 84 84" fill="none" xmlns="http://www.w3.org/2000/svg">
<g filter="url(#filter0_d_130_998)">
<path d="M37.99 72.98C57.3144 72.98 72.98 57.3144 72.98 37.99C72.98 18.6656 57.3144 3 37.99 3C18.6656 3 3 18.6656 3 37.99C3 57.3144 18.6656 72.98 37.99 72.98Z" fill="white"/>
<path d="M37.99 72.98C57.3144 72.98 72.98 57.3144 72.98 37.99C72.98 18.6656 57.3144 3 37.99 3C18.6656 3 3 18.6656 3 37.99C3 57.3144 18.6656 72.98 37.99 72.98Z" stroke="#4D4D4D" stroke-miterlimit="10"/>
</g>
<path d="M44.04 53.5404C43.66 54.0804 43.23 54.5404 42.71 54.9004C42.04 55.3504 41.29 55.4104 40.52 55.3704C39.12 55.2904 37.79 54.8904 36.46 54.4804C36.23 54.4104 36 54.3304 35.72 54.2404C36.72 53.1804 37.03 51.9904 36.39 50.6704C35.77 49.3904 34.72 48.7504 33.27 48.7404C33.43 47.7404 33.19 46.8404 32.53 46.0604C31.88 45.2804 31.03 44.8804 30 44.8704C30 44.4704 30.05 44.0704 30 43.7004C29.75 42.1404 28.33 40.9404 26.77 40.9804C25.95 41.0004 25.28 41.3404 24.79 41.9904C24.57 42.2804 24.35 42.5804 24.12 42.9004C23.73 41.7704 23.01 40.9804 21.88 40.6404C20.73 40.3004 19.73 40.5804 18.94 41.5404C18.56 41.0704 18.19 40.6004 17.82 40.1404C17.44 39.6804 17.05 39.2204 16.66 38.7504C19.02 34.5504 21.39 30.3504 23.77 26.1304C24.06 26.3104 24.35 26.4604 24.62 26.6504C25.41 27.2004 26.32 27.4404 27.25 27.6004C28.01 27.7304 28.77 27.8404 29.55 27.9704C29.24 28.4104 28.93 28.8204 28.65 29.2504C27.91 30.4004 27.14 31.5304 26.46 32.7204C26.11 33.3304 26.04 34.0604 26.18 34.7704C26.31 35.4304 26.82 35.8904 27.54 35.9904C28.69 36.1504 29.78 35.9304 30.83 35.4704C32.51 34.7304 33.8 33.5204 34.87 32.0604C35.08 31.7704 35.31 31.5804 35.66 31.4904C36.14 31.3704 36.6 31.1904 37.08 31.0504C37.17 31.0204 37.29 31.0204 37.37 31.0604C40.03 32.4204 42.67 33.8204 45.17 35.4704C48.44 37.6404 51.62 39.9304 54.63 42.4504C54.85 42.6404 55.07 42.8504 55.24 43.0804C55.69 43.6704 55.76 44.3204 55.46 45.0004C55.14 45.7104 54.59 46.0904 53.82 46.1404C53.26 46.1804 52.74 46.0604 52.24 45.7604C49.52 44.1104 46.79 42.4804 44.06 40.8404C43.74 40.6504 43.4 40.7304 43.23 41.0204C43.07 41.3004 43.17 41.6304 43.48 41.8104C46.14 43.4104 48.81 45.0104 51.47 46.6004C51.64 46.7004 51.72 46.8204 51.73 47.0104C51.76 47.4904 51.7 47.9504 51.49 48.3904C51.12 49.1704 50.44 49.4004 49.65 49.4604C49.65 49.4604 49.64 49.4604 49.63 49.4604C49.11 49.5204 48.65 49.4204 48.18 49.1404C46.1 47.9004 43.99 46.7004 41.89 45.4804C41.79 45.4204 41.7 45.3704 41.6 45.3204C41.31 45.1804 40.99 45.2804 40.84 45.5504C40.7 45.8204 40.78 46.1404 41.06 46.3004C41.65 46.6504 42.25 46.9904 42.84 47.3404C44.52 48.3104 46.19 49.2804 47.87 50.2504C47.98 50.3204 48.04 50.3804 48.01 50.5104C47.93 50.8704 47.88 51.2404 47.76 51.5904C47.51 52.3304 46.93 52.6604 46.17 52.6804C45.75 52.6904 45.33 52.6604 44.91 52.6404C44.81 52.6404 44.72 52.5704 44.63 52.5204C42.83 51.6504 41.03 50.7804 39.24 49.9204C39.14 49.8704 39.02 49.8304 38.9 49.8204C38.63 49.8104 38.4 50.0004 38.34 50.2704C38.28 50.5204 38.41 50.7804 38.67 50.9104C39.43 51.2804 40.19 51.6404 40.95 52.0104C41.95 52.4904 42.95 52.9804 43.94 53.4604C43.97 53.4804 44 53.4904 44.05 53.5204L44.04 53.5404Z" fill="#4D4D4D"/>
<path d="M52.17 26.0104C54.51 30.1604 56.84 34.3004 59.18 38.4504C58.18 39.3104 57.4 40.3804 56.27 41.0804C56.04 41.2204 55.79 41.3504 55.56 41.4904C55.41 41.5804 55.3 41.5704 55.15 41.4504C52.14 38.9204 48.94 36.6404 45.66 34.4704C43.29 32.9004 40.78 31.5704 38.26 30.2604C38.02 30.1304 37.78 29.9904 37.53 29.8904C37.39 29.8404 37.2 29.8104 37.06 29.8504C36.25 30.0904 35.43 30.3504 34.63 30.6204C34.48 30.6704 34.33 30.8104 34.23 30.9504C33.32 32.2704 32.23 33.4104 30.81 34.1804C29.9 34.6804 28.92 34.9404 27.87 34.8804C27.33 34.8504 27.19 34.6704 27.22 34.1304C27.25 33.6104 27.4 33.1304 27.69 32.6904C28.61 31.3204 29.53 29.9504 30.46 28.5904C30.86 28.0004 31.31 27.4504 31.7 26.8604C31.95 26.4804 32.29 26.2504 32.71 26.1004C33.58 25.7904 34.48 25.6304 35.39 25.5104C37.47 25.2304 39.56 25.1004 41.66 25.1604C43.16 25.2004 44.62 25.5004 46.08 25.8304C46.94 26.0304 47.81 26.2104 48.68 26.3904C49.6 26.5804 50.51 26.4804 51.4 26.2204C51.65 26.1504 51.89 26.0704 52.17 25.9904V26.0104Z" fill="#4D4D4D"/>
<path d="M56.47 20.8501C56.73 20.8301 56.81 20.9701 56.9 21.1201C57.42 22.0501 57.94 22.9801 58.47 23.9001C60.86 28.1501 63.25 32.3901 65.64 36.6401C65.84 37.0001 65.8 37.1801 65.45 37.3901C64.2 38.1501 62.95 38.9101 61.7 39.6801C61.41 39.8501 61.25 39.8101 61.08 39.5201C58.79 35.4501 56.5 31.3901 54.21 27.3201C53.59 26.2201 52.97 25.1201 52.35 24.0201C52.13 23.6201 52.17 23.4601 52.56 23.2201C53.8 22.4701 55.04 21.7101 56.27 20.9601C56.35 20.9101 56.44 20.8801 56.47 20.8601V20.8501Z" fill="#4D4D4D"/>
<path d="M23.77 23.7102C23.75 23.7702 23.71 23.8602 23.66 23.9502C22.28 26.4102 20.9 28.8602 19.51 31.3102C17.98 34.0302 16.45 36.7502 14.92 39.4702C14.73 39.8102 14.58 39.8502 14.24 39.6402C12.99 38.8802 11.74 38.1202 10.49 37.3502C10.19 37.1702 10.14 36.9702 10.32 36.6602C12.79 32.2802 15.25 27.9002 17.72 23.5202C18.17 22.7102 18.63 21.9102 19.08 21.1002C19.25 20.7902 19.41 20.7502 19.71 20.9402C20.97 21.7102 22.23 22.4802 23.5 23.2502C23.66 23.3402 23.76 23.4602 23.77 23.7002V23.7102Z" fill="#4D4D4D"/>
<path d="M21.73 48.5903C21.73 48.2403 21.83 47.9203 22.04 47.6403C23.25 45.9903 24.46 44.3403 25.67 42.6903C26.01 42.2303 26.48 42.0803 27.04 42.1303C28.18 42.2403 29.12 43.4803 28.87 44.6003C28.81 44.8703 28.65 45.1303 28.48 45.3603C27.36 46.9003 26.21 48.4203 25.11 49.9803C24.48 50.8703 23.55 50.8803 22.83 50.4503C22.13 50.0303 21.76 49.4103 21.72 48.6003L21.73 48.5903Z" fill="#4D4D4D"/>
<path d="M32.18 48.1904C32.19 48.5104 32.07 48.8404 31.85 49.1404C30.93 50.4004 30.02 51.6704 29.1 52.9304C28.71 53.4604 28.18 53.6204 27.55 53.5004C26.39 53.2704 25.58 52.0104 25.91 50.9404C25.97 50.7504 26.07 50.5604 26.19 50.3904C27.1 49.1504 28.01 47.9104 28.92 46.6704C29.36 46.0704 29.91 45.9004 30.63 46.1104C31.51 46.3704 32.17 47.2504 32.17 48.1904H32.18Z" fill="#4D4D4D"/>
<path d="M32.29 55.9804C31.05 55.9804 30 54.6904 30.26 53.4904C30.29 53.3504 30.35 53.2104 30.43 53.0904C31.06 52.2004 31.7 51.3204 32.34 50.4504C32.73 49.9304 33.28 49.8104 33.89 49.9404C34.84 50.1404 35.59 51.1104 35.56 52.0804C35.56 52.4004 35.46 52.6904 35.27 52.9504C34.67 53.7704 34.06 54.5804 33.46 55.4004C33.17 55.8004 32.77 55.9904 32.28 55.9804H32.29Z" fill="#4D4D4D"/>
<path d="M23.08 43.7803C23.08 44.1303 22.98 44.4503 22.77 44.7303C22.4 45.2103 22.03 45.6903 21.68 46.1903C21.27 46.7803 20.71 46.9303 20.05 46.7803C18.94 46.5303 18.16 45.2503 18.49 44.2003C18.55 44.0203 18.65 43.8503 18.76 43.7003C19.09 43.2403 19.44 42.7803 19.77 42.3203C20.24 41.6903 20.86 41.4903 21.61 41.7403C22.47 42.0303 23.09 42.8803 23.09 43.7803H23.08Z" fill="#4D4D4D"/>
<defs>
<filter id="filter0_d_130_998" x="0.5" y="0.5" width="82.98" height="82.98" filterUnits="userSpaceOnUse" color-interpolation-filters="sRGB">
<feFlood flood-opacity="0" result="BackgroundImageFix"/>
<feColorMatrix in="SourceAlpha" type="matrix" values="0 0 0 0 0 0 0 0 0 0 0 0 0 0 0 0 0 0 127 0" result="hardAlpha"/>
<feOffset dx="4" dy="4"/>
<feGaussianBlur stdDeviation="3"/>
<feColorMatrix type="matrix" values="0 0 0 0 0.301961 0 0 0 0 0.301961 0 0 0 0 0.301961 0 0 0 0.4 0"/>
<feBlend mode="normal" in2="BackgroundImageFix" result="effect1_dropShadow_130_998"/>
<feBlend mode="normal" in="SourceGraphic" in2="effect1_dropShadow_130_998" result="shape"/>
</filter>
</defs>
</svg>
