<svg width="84" height="84" viewBox="0 0 84 84" fill="none" xmlns="http://www.w3.org/2000/svg">
<g filter="url(#filter0_d_130_1073)">
<path d="M37.99 72.5899C57.3144 72.5899 72.98 56.9243 72.98 37.5999C72.98 18.2754 57.3144 2.60986 37.99 2.60986C18.6656 2.60986 3 18.2754 3 37.5999C3 56.9243 18.6656 72.5899 37.99 72.5899Z" fill="white"/>
<path d="M37.99 72.5899C57.3144 72.5899 72.98 56.9243 72.98 37.5999C72.98 18.2754 57.3144 2.60986 37.99 2.60986C18.6656 2.60986 3 18.2754 3 37.5999C3 56.9243 18.6656 72.5899 37.99 72.5899Z" stroke="#4D4D4D" stroke-miterlimit="10"/>
</g>
<path d="M14.41 38.0102C14.41 51.0302 24.97 61.5902 37.99 61.5902C51.01 61.5902 61.57 51.0302 61.57 38.0102C61.57 24.9902 51.01 14.4302 37.99 14.4302C24.97 14.4302 14.41 24.9902 14.41 38.0102ZM56.2 38.0102C56.2 48.0702 48.05 56.2202 37.99 56.2202C27.93 56.2202 19.78 48.0702 19.78 38.0102C19.78 27.9502 27.93 19.8002 37.99 19.8002C48.05 19.8002 56.2 27.9502 56.2 38.0102Z" fill="#4D4D4D"/>
<path d="M37.16 24.1001V37.9201C37.16 38.3201 37.49 38.6501 37.89 38.6501C38.29 38.6501 38.62 38.3201 38.62 37.9201V24.1001C38.62 23.7001 38.29 23.3701 37.89 23.3701C37.49 23.3701 37.16 23.7001 37.16 24.1001Z" fill="#4D4D4D"/>
<path d="M25.04 43.2702C24.67 43.4302 24.39 43.6102 24.42 43.6802C24.45 43.7502 24.78 43.6802 25.15 43.5302L37.91 38.2102C38.28 38.0502 38.56 37.8702 38.53 37.8002C38.5 37.7302 38.17 37.8002 37.8 37.9502L25.04 43.2602V43.2702Z" fill="#4D4D4D"/>
<path d="M38.24 36.9502C37.65 36.9502 37.17 37.4302 37.17 38.0202C37.17 38.6102 37.65 39.0902 38.24 39.0902H47.3C47.89 39.0902 48.37 38.6102 48.37 38.0202C48.37 37.4302 47.89 36.9502 47.3 36.9502H38.24Z" fill="#4D4D4D"/>
<path d="M36.28 37.8901C36.28 38.9001 37.1 39.7101 38.11 39.7101C39.12 39.7101 39.94 38.8901 39.94 37.8901C39.94 36.8901 39.12 36.0601 38.11 36.0601C37.1 36.0601 36.28 36.8801 36.28 37.8901Z" fill="#4D4D4D"/>
<defs>
<filter id="filter0_d_130_1073" x="0.5" y="0.109863" width="82.98" height="82.98" filterUnits="userSpaceOnUse" color-interpolation-filters="sRGB">
<feFlood flood-opacity="0" result="BackgroundImageFix"/>
<feColorMatrix in="SourceAlpha" type="matrix" values="0 0 0 0 0 0 0 0 0 0 0 0 0 0 0 0 0 0 127 0" result="hardAlpha"/>
<feOffset dx="4" dy="4"/>
<feGaussianBlur stdDeviation="3"/>
<feColorMatrix type="matrix" values="0 0 0 0 0.301961 0 0 0 0 0.301961 0 0 0 0 0.301961 0 0 0 0.4 0"/>
<feBlend mode="normal" in2="BackgroundImageFix" result="effect1_dropShadow_130_1073"/>
<feBlend mode="normal" in="SourceGraphic" in2="effect1_dropShadow_130_1073" result="shape"/>
</filter>
</defs>
</svg>
