<svg width="84" height="84" viewBox="0 0 84 84" fill="none" xmlns="http://www.w3.org/2000/svg">
<g filter="url(#filter0_d_130_1066)">
<path d="M37.99 72.98C57.3144 72.98 72.98 57.3144 72.98 37.99C72.98 18.6656 57.3144 3 37.99 3C18.6656 3 3 18.6656 3 37.99C3 57.3144 18.6656 72.98 37.99 72.98Z" fill="white"/>
<path d="M37.99 72.98C57.3144 72.98 72.98 57.3144 72.98 37.99C72.98 18.6656 57.3144 3 37.99 3C18.6656 3 3 18.6656 3 37.99C3 57.3144 18.6656 72.98 37.99 72.98Z" stroke="#4D4D4D" stroke-miterlimit="10"/>
</g>
<path d="M51.75 20.51C51.78 18.07 50.63 15.89 48.82 14.51C48.56 14.31 48.17 14.5 48.17 14.83V20.01L44.3 22.39L40.43 20.01V14.83C40.43 14.5 40.05 14.31 39.78 14.51C38.03 15.85 36.88 17.95 36.85 20.33C36.81 23.42 38.67 26.1 41.34 27.26V48.3C38.73 49.43 36.89 52.01 36.85 55.04C36.82 57.48 37.97 59.66 39.78 61.04C40.05 61.24 40.43 61.05 40.43 60.72V55.54L44.3 53.16L48.17 55.54V60.72C48.17 61.05 48.55 61.24 48.82 61.04C50.57 59.7 51.72 57.6 51.75 55.22C51.79 52.13 49.93 49.45 47.26 48.29V27.25C49.87 26.12 51.71 23.54 51.75 20.51Z" fill="#4D4D4D"/>
<path d="M32.35 36.0202H30.02V22.1802L31.04 20.5702L29.81 14.4302H27.35L26.12 20.5702L27.14 22.1802V36.0202H24.81C24.49 36.0202 24.24 36.3102 24.24 36.6702V37.7902C24.24 38.1502 24.5 38.4402 24.81 38.4402H24.94C24.5 39.2002 24.24 40.1002 24.24 41.0802V56.6602C24.24 59.2902 26.11 61.4302 28.43 61.4302H28.74C31.05 61.4302 32.93 59.2902 32.93 56.6602V41.0802C32.93 40.1002 32.67 39.1902 32.23 38.4402H32.36C32.68 38.4402 32.93 38.1502 32.93 37.7902V36.6702C32.93 36.3102 32.67 36.0202 32.36 36.0202H32.35ZM26.29 58.2002H25.35V41.0802H26.29V58.2002ZM28.99 58.2002H28.05V41.0802H28.99V58.2002ZM31.7 58.2002H30.76V41.0802H31.7V58.2002Z" fill="#4D4D4D"/>
<defs>
<filter id="filter0_d_130_1066" x="0.5" y="0.5" width="82.98" height="82.98" filterUnits="userSpaceOnUse" color-interpolation-filters="sRGB">
<feFlood flood-opacity="0" result="BackgroundImageFix"/>
<feColorMatrix in="SourceAlpha" type="matrix" values="0 0 0 0 0 0 0 0 0 0 0 0 0 0 0 0 0 0 127 0" result="hardAlpha"/>
<feOffset dx="4" dy="4"/>
<feGaussianBlur stdDeviation="3"/>
<feColorMatrix type="matrix" values="0 0 0 0 0.301961 0 0 0 0 0.301961 0 0 0 0 0.301961 0 0 0 0.4 0"/>
<feBlend mode="normal" in2="BackgroundImageFix" result="effect1_dropShadow_130_1066"/>
<feBlend mode="normal" in="SourceGraphic" in2="effect1_dropShadow_130_1066" result="shape"/>
</filter>
</defs>
</svg>
