<svg width="84" height="84" viewBox="0 0 84 84" fill="none" xmlns="http://www.w3.org/2000/svg">
<g filter="url(#filter0_d_130_1056)">
<path d="M37.55 72.6001C56.8744 72.6001 72.54 56.9346 72.54 37.6101C72.54 18.2857 56.8744 2.62012 37.55 2.62012C18.2256 2.62012 2.56 18.2857 2.56 37.6101C2.56 56.9346 18.2256 72.6001 37.55 72.6001Z" fill="white"/>
<path d="M37.55 72.6001C56.8744 72.6001 72.54 56.9346 72.54 37.6101C72.54 18.2857 56.8744 2.62012 37.55 2.62012C18.2256 2.62012 2.56 18.2857 2.56 37.6101C2.56 56.9346 18.2256 72.6001 37.55 72.6001Z" stroke="#4D4D4D" stroke-miterlimit="10"/>
</g>
<path d="M36.97 50.28C36.9 50.35 36.82 50.41 36.75 50.47C36.67 50.54 36.6 50.6 36.52 50.66C36.36 50.79 36.2 50.91 36.03 51.03L32.56 58.16L31.87 54.06L32.9 52.41C32.78 52.44 32.65 52.46 32.52 52.49C32.2 52.55 31.87 52.59 31.53 52.61C31.35 52.62 31.16 52.63 30.98 52.63C30.27 52.63 29.58 52.54 28.91 52.38L29.95 54.06L29.3 58.24L25.46 50.69C25.28 50.55 25.11 50.4 24.95 50.25L24.88 50.31C21.15 53.54 20.16 58.52 19.9 61.14H41.7C40.98 53.48 37.79 50.85 36.97 50.3V50.28Z" fill="#4D4D4D"/>
<path d="M30.98 35.48C26.42 35.48 22.72 39.19 22.72 43.74C22.72 48.29 26.43 52 30.98 52C35.53 52 39.24 48.29 39.24 43.74C39.24 39.19 35.53 35.48 30.98 35.48Z" fill="#4D4D4D"/>
<path d="M54.64 55.6797C54.64 55.6797 54.71 55.5897 54.71 55.5297C54.71 55.4697 54.67 55.4197 54.62 55.3897C54.6 55.3897 53.22 54.6597 52.85 53.6997C53.34 54.1797 53.91 54.3797 54.66 54.5197C54.72 54.5297 54.78 54.5097 54.82 54.4597C54.86 54.4197 54.87 54.3497 54.84 54.2997C54.12 52.5497 53.76 50.4697 53.42 48.4597C53.21 47.2297 53 46.0297 52.72 44.9697C52.63 44.5097 52.49 44.0597 52.3 43.6397C52.1 43.1197 51.86 42.6397 51.58 42.2397C51.27 41.7997 50.43 40.6197 48.52 40.2197C47.91 40.0197 47.25 39.9097 46.57 39.9097C45.2 39.9097 44.01 40.3597 43.03 41.1197C42.1 41.7097 41.41 42.5897 40.89 43.8797C40.56 44.5997 40.31 45.3897 40.17 46.2097C40.13 46.4397 40.11 46.6597 40.09 46.8697C40.04 47.1397 40 47.4197 39.96 47.6997C39.77 49.0497 39.91 50.8097 40.17 52.4797C41.26 54.2297 42.35 56.9697 42.74 61.1197H55.2C55.11 59.9697 54.83 58.0197 53.94 56.0697C54.36 55.8597 54.61 55.6897 54.64 55.6697V55.6797ZM50.81 54.6897C50.71 54.8097 48.76 56.0797 48.76 56.0797L49.72 57.3897L46.68 59.7797L43.64 57.3897L44.6 56.0797C44.6 56.0797 42.65 54.8097 42.55 54.6897C42.38 54.4697 43.42 53.4697 43.42 53.4697L46.68 59.7697L49.94 53.4697C49.94 53.4697 50.99 54.4697 50.81 54.6897Z" fill="#4D4D4D"/>
<path d="M44.95 14.0898H22.88C21.68 14.0898 20.7 15.0698 20.7 16.2698V28.1598C20.7 29.3598 21.68 30.3398 22.88 30.3398H31.75L31.46 34.0698L34.71 30.3398H44.96C46.16 30.3398 47.14 29.3598 47.14 28.1598V16.2698C47.14 15.0698 46.16 14.0898 44.96 14.0898H44.95ZM34.93 24.6298H23.91C23.7 24.6298 23.53 24.4598 23.53 24.2498C23.53 24.0398 23.7 23.8698 23.91 23.8698H34.93C35.14 23.8698 35.31 24.0398 35.31 24.2498C35.31 24.4598 35.14 24.6298 34.93 24.6298ZM43.65 21.9898H23.91C23.7 21.9898 23.53 21.8198 23.53 21.6098C23.53 21.3998 23.7 21.2298 23.91 21.2298H43.65C43.86 21.2298 44.03 21.3998 44.03 21.6098C44.03 21.8198 43.86 21.9898 43.65 21.9898ZM43.65 19.3498H23.91C23.7 19.3498 23.53 19.1798 23.53 18.9698C23.53 18.7598 23.7 18.5898 23.91 18.5898H43.65C43.86 18.5898 44.03 18.7598 44.03 18.9698C44.03 19.1798 43.86 19.3498 43.65 19.3498Z" fill="#4D4D4D"/>
<path d="M53.14 24.6299H48.12V28.9199C48.12 30.2199 47.07 31.2699 45.77 31.2699H39.15V34.1299C39.15 34.8799 39.76 35.4999 40.51 35.4999H47.24L49.27 37.8399L49.09 35.4999H53.14C53.89 35.4999 54.5 34.8899 54.5 34.1299V25.9999C54.5 25.2499 53.89 24.6399 53.14 24.6399V24.6299Z" fill="#4D4D4D"/>
<defs>
<filter id="filter0_d_130_1056" x="0.0599976" y="0.120117" width="82.98" height="82.98" filterUnits="userSpaceOnUse" color-interpolation-filters="sRGB">
<feFlood flood-opacity="0" result="BackgroundImageFix"/>
<feColorMatrix in="SourceAlpha" type="matrix" values="0 0 0 0 0 0 0 0 0 0 0 0 0 0 0 0 0 0 127 0" result="hardAlpha"/>
<feOffset dx="4" dy="4"/>
<feGaussianBlur stdDeviation="3"/>
<feColorMatrix type="matrix" values="0 0 0 0 0.301961 0 0 0 0 0.301961 0 0 0 0 0.301961 0 0 0 0.4 0"/>
<feBlend mode="normal" in2="BackgroundImageFix" result="effect1_dropShadow_130_1056"/>
<feBlend mode="normal" in="SourceGraphic" in2="effect1_dropShadow_130_1056" result="shape"/>
</filter>
</defs>
</svg>
